<svg version="1" xmlns="http://www.w3.org/2000/svg" width="1066.667" height="1066.667" viewBox="0 0 800.000000 800.000000"><path d="M378.9 61.4c-.2.2-4.7.7-9.9 1-5.2.4-10.2.9-11 1.1-.8.2-4.2.6-7.5 1-3.3.3-8.2 1-11 1.5-2.7.5-6.7 1.2-8.7 1.4-2.1.3-5.7 1-8 1.5-2.4.6-5.8 1.3-7.7 1.6-1.9.3-3.7.8-4.1 1-.4.2-2.1.7-3.8 1-29.6 5.2-90.4 28.7-114.8 44.3-8 5.1-11.8 14.4-9.4 23.1.6 2.4 11.4 25.1 24 50.5 25.9 52 27.4 54.4 36.9 56.3 7 1.4 10.9.3 28.1-8 35.8-17.1 71.7-28.5 99-31.3 9.4-1 34.5-1.1 42.5-.2 11 1.2 24.4 6.9 30.2 12.7 6.4 6.4 8.5 12.4 8.3 24-.1 9.7-.3 10.5-2.5 17-4.4 13.3-16.2 27.1-37.5 44.1-2.4 1.9-4.8 4-5.4 4.5-.6.6-7.2 5.5-14.6 10.9-20 14.6-33.2 25.7-45.5 38.1-13 13-14.9 15.2-23 27-11.6 16.7-19.2 35.2-22.9 56-.3 1.6-.8 4.2-1.1 5.6-2.8 14.5-3.5 58.3-1.2 66.1 2.3 7.3 6.2 11.3 13.2 13.4 7.6 2.2 117.5 2.2 125.2-.1 5.7-1.7 10.6-6.7 12.4-12.7.6-1.8 1.2-12.3 1.4-23.3.3-22.5.6-24.6 4.6-33.1 3.7-7.6 15.1-19.6 28.9-30.4 2.5-1.9 4.7-3.7 5-4 .7-.8 10.2-8 26-19.7 27.2-20.2 46.6-37.5 60.5-54 3.2-3.7 6.2-7 6.6-7.1.5-.2.9-.8.9-1.2 0-.5 2.5-4.3 5.5-8.5 7.9-11 17.7-32.1 20-43.1.2-1 1.3-5.7 2.4-10.4 3.8-16.3 4.6-23.9 4.5-44 0-18.2-.3-21.2-4-38-6.9-31.5-19.4-54.5-42.5-78-5.6-5.8-21.1-18.1-29.9-23.8-13.1-8.6-41.2-20.8-54.3-23.7-1.2-.2-4-.9-6.2-1.5-10.2-2.6-26.1-5.5-41.5-7.5-5.1-.7-57.5-1.7-58.1-1.1zM359.5 563.4c-25.8 4.8-38 10.5-51.5 23.8-12.2 12-18.4 24.5-22.5 45.3-2.8 14.5-2.5 33.5.7 46 .5 2.2 1.1 4.7 1.3 5.5 4.2 21.6 22.2 43.7 43.9 53.6 5.8 2.6 22.5 7.2 30.1 8.2 9.9 1.4 31.7.8 39.5-1.1 4.1-.9 8.4-1.9 9.5-2.1 7.7-1.6 17.4-6 26.1-12.1 8.8-6.1 11.9-9.1 18.2-17.4 7.6-10.1 11.5-18.5 14.8-32.1 2.5-9.9 2.9-13.5 2.9-25.5 0-14.6-.3-17.7-3-28.5-.9-3.6-1.7-7.2-1.9-8-1.2-4.6-5.3-13.3-9.1-19.1-5.6-8.4-12.2-15.2-20.6-21.2-9-6.4-15.8-9.3-29.7-12.8-9.7-2.5-14.2-3.1-26.7-3.4-9.7-.2-17.5.1-22 .9z"/></svg>