<?xml version="1.0" standalone="no"?>
<!DOCTYPE svg PUBLIC "-//W3C//DTD SVG 20010904//EN"
 "http://www.w3.org/TR/2001/REC-SVG-20010904/DTD/svg10.dtd">
<svg version="1.0" xmlns="http://www.w3.org/2000/svg"
 width="800.000000pt" height="800.000000pt" viewBox="0 0 800.000000 800.000000"
 preserveAspectRatio="xMidYMid meet">
<metadata>
Created by potrace 1.11, written by Peter Selinger 2001-2013
</metadata>
<g transform="translate(0.000000,800.000000) scale(0.100000,-0.100000)"
fill="#000000" stroke="none">
<path d="M985 6699 c-204 -579 -371 -1058 -373 -1066 -3 -11 41 -13 241 -13
l245 0 11 33 c13 42 131 427 137 450 5 16 32 17 388 17 l382 0 43 -137 c23
-76 58 -189 77 -250 l35 -113 245 0 c134 0 244 3 243 8 0 4 -168 482 -373
1062 l-372 1055 -280 3 -280 2 -369 -1051z m791 236 c67 -220 126 -408 129
-417 7 -17 -10 -18 -264 -18 -149 0 -271 4 -271 8 0 4 38 134 85 287 47 154
107 354 133 444 44 152 48 161 56 130 5 -19 64 -214 132 -434z"/>
<path d="M4860 7154 c-483 -59 -836 -160 -1203 -346 -151 -77 -201 -118 -218
-182 -23 -85 -11 -119 178 -499 98 -197 190 -371 204 -386 49 -54 77 -65 153
-65 64 1 81 6 181 54 241 115 481 197 660 226 134 21 365 21 437 0 74 -22 128
-55 155 -95 19 -28 23 -47 23 -112 0 -171 -79 -265 -470 -560 -380 -286 -557
-515 -630 -814 -38 -158 -50 -259 -50 -435 0 -204 19 -267 99 -321 l35 -24
491 0 492 0 40 28 c22 15 50 46 63 70 22 38 25 57 30 222 6 175 7 181 35 234
38 68 144 163 407 362 372 282 537 455 647 675 107 215 160 519 132 761 -46
396 -216 689 -531 914 -148 106 -309 178 -510 229 -224 56 -277 62 -555 65
-143 2 -276 1 -295 -1z m593 -220 c321 -45 576 -158 771 -344 213 -203 311
-422 323 -725 9 -229 -22 -398 -107 -570 -59 -119 -111 -190 -228 -309 -104
-106 -204 -191 -372 -316 -289 -216 -418 -336 -464 -433 -38 -81 -46 -127 -53
-294 l-6 -153 -415 0 -414 0 5 213 c4 187 8 224 31 311 51 196 154 358 329
521 45 42 172 145 282 228 110 84 245 197 301 252 86 85 107 112 142 185 46
98 62 163 62 259 0 201 -115 336 -340 398 -101 28 -417 25 -560 -6 -236 -50
-511 -148 -724 -258 l-39 -20 -168 339 c-93 186 -169 343 -169 349 0 15 290
152 440 207 273 102 579 166 885 186 106 7 377 -4 488 -20z"/>
<path d="M870 4059 l0 -1060 503 4 c480 3 506 4 587 25 133 35 243 94 326 177
109 107 152 207 161 372 10 174 -26 298 -112 391 -59 64 -121 102 -209 127
-41 12 -55 20 -45 26 8 5 20 9 27 9 32 0 126 57 166 100 85 90 120 194 120
350 1 269 -127 424 -409 495 -148 38 -260 45 -700 45 l-415 0 0 -1061z m817
680 c80 -11 153 -37 187 -67 49 -44 69 -149 45 -237 -6 -22 -28 -56 -48 -76
-58 -58 -113 -70 -343 -76 l-198 -6 0 237 0 236 139 0 c77 0 175 -5 218 -11z
m111 -847 c78 -25 125 -61 155 -115 18 -34 22 -58 22 -127 0 -75 -4 -91 -29
-137 -16 -29 -45 -63 -65 -77 -73 -50 -121 -59 -343 -64 l-208 -4 0 277 0 278
203 -5 c166 -5 213 -9 265 -26z"/>
<path d="M4710 3414 c-180 -41 -301 -118 -397 -252 -62 -87 -84 -142 -113
-287 -28 -135 -24 -263 14 -408 44 -169 129 -291 271 -386 77 -51 148 -79 278
-106 105 -23 308 -16 422 14 195 52 345 171 432 346 101 200 104 513 8 724
-59 127 -168 237 -304 306 -148 74 -410 96 -611 49z m424 -200 c125 -32 236
-114 290 -213 61 -113 83 -304 51 -454 -38 -179 -170 -314 -356 -364 -86 -23
-271 -22 -359 1 -191 49 -304 161 -351 346 -30 117 -24 291 14 398 75 213 269
320 557 306 52 -3 122 -12 154 -20z"/>
<path d="M1559 2515 c-339 -64 -586 -277 -704 -609 -58 -160 -70 -244 -69
-481 0 -160 4 -231 17 -299 50 -248 131 -410 273 -547 86 -82 182 -139 299
-178 132 -44 230 -55 429 -48 182 6 292 24 436 72 l80 27 0 189 c0 104 -2 189
-4 189 -3 0 -58 -16 -124 -35 -246 -70 -448 -88 -580 -50 -254 73 -377 329
-359 749 13 314 114 520 301 611 162 80 341 66 599 -46 50 -21 94 -39 98 -39
6 0 149 346 149 362 0 12 -206 87 -312 114 -87 22 -130 27 -278 30 -124 2
-197 -1 -251 -11z"/>
<path d="M4722 1655 l4 -145 -25 24 c-35 34 -72 46 -137 46 -140 0 -216 -102
-217 -290 -2 -195 74 -300 217 -300 63 0 125 25 150 61 14 21 15 21 30 -15
l15 -36 65 0 66 0 0 400 0 400 -86 0 -87 0 5 -145z m-56 -220 c50 -21 67 -67
62 -171 -2 -70 -7 -86 -26 -107 -31 -32 -81 -42 -125 -23 -93 38 -90 255 4
303 31 16 42 16 85 -2z"/>
<path d="M6233 1742 c-103 -37 -170 -110 -205 -225 -17 -58 -20 -86 -15 -175
6 -139 25 -190 98 -264 74 -75 130 -92 273 -86 60 3 116 12 139 21 l37 16 0
65 c0 37 -3 66 -7 66 -5 0 -30 -7 -58 -16 -27 -8 -82 -16 -120 -17 -130 -3
-184 59 -193 219 -8 148 41 248 135 273 45 12 99 4 173 -25 23 -9 42 -15 44
-13 8 11 46 113 46 124 0 21 -101 48 -200 52 -74 3 -106 -1 -147 -15z"/>
<path d="M6892 1741 c-103 -39 -163 -107 -197 -225 -24 -82 -17 -248 14 -328
43 -112 147 -186 273 -196 l67 -5 66 -83 66 -84 106 0 c100 0 105 1 91 18 -8
9 -48 55 -89 101 -52 59 -70 86 -60 89 31 11 102 87 126 136 54 111 56 295 5
414 -27 61 -90 124 -155 154 -72 32 -237 37 -313 9z m243 -140 c17 -9 41 -37
55 -62 23 -40 25 -55 25 -164 0 -106 -3 -125 -23 -163 -38 -71 -120 -104 -202
-82 -95 26 -135 100 -135 250 0 81 4 102 25 144 14 28 37 59 51 69 54 39 143
42 204 8z"/>
<path d="M5050 1375 l0 -375 76 0 76 0 -3 280 c-2 154 -2 274 0 268 3 -7 41
-132 86 -278 l81 -265 79 0 79 0 91 280 92 280 -5 -282 -5 -283 82 0 81 0 0
375 0 375 -113 0 -113 0 -89 -275 c-49 -151 -91 -275 -95 -275 -3 0 -44 124
-90 275 l-85 275 -112 0 -113 0 0 -375z"/>
<path d="M2965 1563 c-16 -8 -42 -27 -57 -40 l-27 -25 -6 36 -7 36 -64 0 -64
0 0 -285 0 -285 80 0 80 0 0 150 c0 233 22 291 109 294 77 2 89 -36 90 -286
l1 -158 79 0 79 0 4 188 c3 161 6 191 21 214 39 57 130 58 156 2 7 -16 11 -95
11 -214 l0 -190 85 0 85 0 0 195 c0 106 -5 217 -11 245 -20 95 -81 140 -189
140 -70 0 -120 -18 -155 -56 l-25 -27 -33 31 c-17 17 -45 36 -60 41 -42 16
-147 13 -182 -6z"/>
<path d="M3891 1566 c-55 -20 -112 -75 -139 -135 -21 -46 -26 -71 -26 -146 -1
-79 3 -97 27 -147 32 -66 82 -111 146 -133 61 -21 211 -19 276 3 l50 17 3 54
c5 80 2 83 -60 59 -70 -26 -171 -28 -216 -4 -20 10 -40 32 -48 51 -28 67 -34
65 171 65 l185 0 0 58 c0 175 -94 273 -260 271 -41 0 -90 -6 -109 -13z m148
-107 c33 -12 61 -52 61 -89 0 -19 -6 -20 -104 -20 l-105 0 9 28 c16 54 23 64
54 78 38 16 45 17 85 3z"/>
</g>
</svg>
